<?xml version="1.0" encoding="UTF-8" standalone="no"?>
<!-- Created with Inkscape (http://www.inkscape.org/) -->

<svg
   width="1280"
   height="800"
   viewBox="0 0 338.66666 211.66666"
   version="1.1"
   id="svg1"
   inkscape:version="1.4.4 (dcaf3e7d9e, 2026-05-05)"
   sodipodi:docname="logo-full-transparent.svg"
   xmlns:inkscape="http://www.inkscape.org/namespaces/inkscape"
   xmlns:sodipodi="http://sodipodi.sourceforge.net/DTD/sodipodi-0.dtd"
   xmlns="http://www.w3.org/2000/svg"
   xmlns:svg="http://www.w3.org/2000/svg">
  <sodipodi:namedview
     id="namedview1"
     pagecolor="#ffffff"
     bordercolor="#000000"
     borderopacity="0.25"
     inkscape:showpageshadow="2"
     inkscape:pageopacity="0.0"
     inkscape:pagecheckerboard="0"
     inkscape:deskcolor="#d1d1d1"
     inkscape:document-units="px"
     inkscape:zoom="0.54740758"
     inkscape:cx="622.02281"
     inkscape:cy="6.3937734"
     inkscape:window-width="1920"
     inkscape:window-height="1043"
     inkscape:window-x="0"
     inkscape:window-y="0"
     inkscape:window-maximized="1"
     inkscape:current-layer="layer1" />
  <defs
     id="defs1" />
  <g
     inkscape:label="Layer 1"
     inkscape:groupmode="layer"
     id="layer1">
    <path
       style="fill:#515eaa;fill-opacity:1;stroke:none;stroke-width:4.39999;paint-order:stroke fill markers"
       d="M 73.020866,79.375 V 92.604166 A 13.229167,13.229167 0 0 1 86.250032,105.83333 13.229167,13.229167 0 0 1 73.020866,119.0625 v 13.22917 A 26.458334,26.458334 0 0 0 99.479199,105.83333 26.458334,26.458334 0 0 0 73.020866,79.375 Z"
       id="path11" />
    <path
       style="fill:#0c133d;fill-opacity:1;stroke:none;stroke-width:4.39999;paint-order:stroke fill markers"
       d="m 73.020866,66.145833 a 39.6875,39.6875 0 0 0 -39.6875,39.687497 39.6875,39.6875 0 0 0 39.6875,39.6875 V 132.29167 A 26.458334,26.458334 0 0 1 46.562532,105.83333 26.458334,26.458334 0 0 1 73.020866,79.375 Z"
       id="path3" />
    <path
       style="font-weight:bold;font-size:50.8px;font-family:Ubuntu;-inkscape-font-specification:Ubuntu;letter-spacing:0px;fill:#0c133d;stroke-width:4.4;paint-order:stroke fill markers"
       d="m 126.46655,92.376363 q 0,-2.8956 0.9144,-5.4356 0.9652,-2.5908 2.7432,-4.4704 1.778,-1.9304 4.318,-3.048 2.54,-1.1176 5.7912,-1.1176 2.1336,0 3.9116,0.4064 1.778,0.3556 3.4544,1.0668 l -1.5748,6.0452 q -1.0668,-0.4064 -2.3368,-0.7112 -1.27,-0.3048 -2.8448,-0.3048 -3.3528,0 -5.0292,2.0828 -1.6256,2.0828 -1.6256,5.4864 0,3.6068 1.524,5.588 1.5748,1.9812 5.4356,1.9812 1.3716,0 2.9464,-0.254 1.5748,-0.254 2.8956,-0.8128 l 1.0668,6.197597 q -1.3208,0.5588 -3.302,0.9652 -1.9812,0.4064 -4.3688,0.4064 -3.6576,0 -6.2992,-1.0668 -2.6416,-1.1176 -4.3688,-2.9972 -1.6764,-1.8796 -2.4892,-4.419597 -0.762,-2.5908 -0.762,-5.588 z m 50.39362,-0.0508 q 0,3.1496 -0.9144,5.7912 -0.9144,2.590797 -2.6416,4.470397 -1.7272,1.8288 -4.1656,2.8448 -2.3876,1.016 -5.3848,1.016 -2.9464,0 -5.3848,-1.016 -2.3876,-1.016 -4.1148,-2.8448 -1.7272,-1.8796 -2.6924,-4.470397 -0.9652,-2.6416 -0.9652,-5.7912 0,-3.1496 0.9652,-5.7404 1.016,-2.5908 2.7432,-4.4196 1.778,-1.8288 4.1656,-2.8448 2.4384,-1.016 5.2832,-1.016 2.8956,0 5.2832,1.016 2.4384,1.016 4.1656,2.8448 1.7272,1.8288 2.6924,4.4196 0.9652,2.5908 0.9652,5.7404 z m -7.7216,0 q 0,-3.5052 -1.4224,-5.4864 -1.3716,-2.032 -3.9624,-2.032 -2.5908,0 -4.0132,2.032 -1.4224,1.9812 -1.4224,5.4864 0,3.5052 1.4224,5.588 1.4224,2.032 4.0132,2.032 2.5908,0 3.9624,-2.032 1.4224,-2.0828 1.4224,-5.588 z m 13.56362,-12.3952 q 1.9304,-0.5588 4.9784,-1.016 3.048,-0.508 6.4008,-0.508 3.4036,0 5.6388,0.9144 2.286,0.8636 3.6068,2.4892 1.3208,1.6256 1.8796,3.8608 0.5588,2.2352 0.5588,4.9784 v 15.087597 h -7.5692 V 91.563563 q 0,-3.6576 -0.9652,-5.1816 -0.9652,-1.524 -3.6068,-1.524 -0.8128,0 -1.7272,0.1016 -0.9144,0.0508 -1.6256,0.1524 v 20.624797 h -7.5692 z m 28.65123,12.446 q 0,-2.8956 0.9144,-5.4356 0.9652,-2.5908 2.7432,-4.4704 1.778,-1.9304 4.318,-3.048 2.54,-1.1176 5.7912,-1.1176 2.1336,0 3.9116,0.4064 1.778,0.3556 3.4544,1.0668 l -1.5748,6.0452 q -1.0668,-0.4064 -2.3368,-0.7112 -1.27,-0.3048 -2.8448,-0.3048 -3.3528,0 -5.0292,2.0828 -1.6256,2.0828 -1.6256,5.4864 0,3.6068 1.524,5.588 1.5748,1.9812 5.4356,1.9812 1.3716,0 2.9464,-0.254 1.5748,-0.254 2.8956,-0.8128 l 1.0668,6.197597 q -1.3208,0.5588 -3.302,0.9652 -1.9812,0.4064 -4.3688,0.4064 -3.6576,0 -6.2992,-1.0668 -2.6416,-1.1176 -4.3688,-2.9972 -1.6764,-1.8796 -2.4892,-4.419597 -0.762,-2.5908 -0.762,-5.588 z m 24.13002,0.2032 q 0,-3.556 1.0668,-6.1976 1.1176,-2.6924 2.8956,-4.4704 1.778,-1.778 4.064,-2.6924 2.3368,-0.9144 4.7752,-0.9144 5.6896,0 8.9916,3.5052 3.302,3.4544 3.302,10.2108 0,0.6604 -0.0508,1.4732 -0.0508,0.762 -0.1016,1.3716 h -17.1704 q 0.254,2.3368 2.1844,3.7084 1.9304,1.3716 5.1816,1.3716 2.0828,0 4.064,-0.3556 2.032,-0.4064 3.302,-0.9652 l 1.016,6.146797 q -0.6096,0.3048 -1.6256,0.6096 -1.016,0.3048 -2.286,0.508 -1.2192,0.254 -2.6416,0.4064 -1.4224,0.1524 -2.8448,0.1524 -3.6068,0 -6.2992,-1.0668 -2.6416,-1.0668 -4.4196,-2.8956 -1.7272,-1.8796 -2.5908,-4.419597 -0.8128,-2.54 -0.8128,-5.4864 z m 17.78,-2.8956 q -0.0508,-0.9652 -0.3556,-1.8796 -0.254,-0.9144 -0.8636,-1.6256 -0.5588,-0.7112 -1.4732,-1.1684 -0.8636,-0.4572 -2.1844,-0.4572 -1.27,0 -2.1844,0.4572 -0.9144,0.4064 -1.524,1.1176 -0.6096,0.7112 -0.9652,1.6764 -0.3048,0.9144 -0.4572,1.8796 z m 29.26078,-3.9624 q -1.016,-0.254 -2.3876,-0.508 -1.3716,-0.3048 -2.9464,-0.3048 -0.7112,0 -1.7272,0.1524 -0.9652,0.1016 -1.4732,0.254 v 20.421597 h -7.5692 V 80.438363 q 2.032,-0.7112 4.7752,-1.3208 2.794,-0.6604 6.1976,-0.6604 0.6096,0 1.4732,0.1016 0.8636,0.0508 1.7272,0.2032 0.8636,0.1016 1.7272,0.3048 0.8636,0.1524 1.4732,0.4064 z m 5.08005,-13.360399 7.5692,-1.2192 v 7.873999 h 9.0932 v 6.2992 h -9.0932 v 9.398 q 0,2.3876 0.8128,3.81 0.8636,1.4224 3.4036,1.4224 1.2192,0 2.4892,-0.2032 1.3208,-0.254 2.3876,-0.6604 l 1.0668,5.892797 q -1.3716,0.5588 -3.048,0.9652 -1.6764,0.4064 -4.1148,0.4064 -3.0988,0 -5.1308,-0.8128 -2.032,-0.8636 -3.2512,-2.3368 -1.2192,-1.524 -1.7272,-3.657597 -0.4572,-2.1336 -0.4572,-4.7244 z"
       id="text3"
       aria-label="concert" />
    <path
       style="font-size:22.5778px;line-height:0;font-family:Ubuntu;-inkscape-font-specification:Ubuntu;letter-spacing:2.64583px;fill:#515eaa;stroke-width:4.4;paint-order:stroke fill markers"
       d="m 134.72573,123.03477 q -0.38382,-0.31609 -1.10631,-0.6096 -0.72249,-0.29351 -1.58045,-0.29351 -0.90311,0 -1.55787,0.33867 -0.63217,0.31609 -1.03857,0.90311 -0.4064,0.56445 -0.58703,1.35467 -0.18062,0.79022 -0.18062,1.69333 0,2.05458 1.016,3.18347 1.016,1.10632 2.70934,1.10632 0.85795,0 1.4224,-0.0677 0.58702,-0.0903 0.90311,-0.18062 z m 0,-7.90223 2.09974,-0.36124 v 17.1817 q -0.72249,0.2032 -1.85138,0.40641 -1.12889,0.2032 -2.59645,0.2032 -1.35467,0 -2.4384,-0.42898 -1.08374,-0.42898 -1.85138,-1.2192 -0.76765,-0.79023 -1.19663,-1.91912 -0.4064,-1.15146 -0.4064,-2.57387 0,-1.35466 0.33867,-2.48355 0.36125,-1.12889 1.03858,-1.9417 0.67733,-0.8128 1.64818,-1.26435 0.99342,-0.45156 2.25778,-0.45156 1.016,0 1.78365,0.27094 0.79022,0.27093 1.17404,0.51928 z m 10.45777,17.15913 h -2.09974 v -11.74045 h 2.09974 z m -1.06116,-13.86277 q -0.56444,0 -0.97085,-0.36124 -0.38382,-0.38383 -0.38382,-1.016 0,-0.63218 0.38382,-0.99343 0.40641,-0.38382 0.97085,-0.38382 0.56445,0 0.94827,0.38382 0.4064,0.36125 0.4064,0.99343 0,0.63217 -0.4064,1.016 -0.38382,0.36124 -0.94827,0.36124 z m 14.6798,12.68873 q -0.27093,0.18062 -1.06115,0.47413 -0.76765,0.27093 -1.80623,0.27093 -1.06115,0 -2.00942,-0.33866 -0.92569,-0.33867 -1.6256,-1.03858 -0.69991,-0.72249 -1.10631,-1.78365 -0.4064,-1.06116 -0.4064,-2.52871 0,-1.28694 0.38382,-2.34809 0.38382,-1.08374 1.10631,-1.85138 0.74507,-0.79023 1.80622,-1.2192 1.06116,-0.45156 2.39325,-0.45156 1.46756,0 2.55129,0.22578 1.10631,0.2032 1.85138,0.38382 v 10.4761 q 0,2.70934 -1.39982,3.92854 -1.39983,1.2192 -4.24463,1.2192 -1.10631,0 -2.09973,-0.18062 -0.97085,-0.18063 -1.69334,-0.42898 l 0.38382,-1.8288 q 0.63218,0.24835 1.53529,0.42897 0.92569,0.2032 1.91912,0.2032 1.87395,0 2.68676,-0.74506 0.83537,-0.74507 0.83537,-2.37067 z m -0.0226,-8.71503 q -0.31609,-0.0903 -0.85796,-0.15805 -0.51929,-0.0903 -1.4224,-0.0903 -1.69334,0 -2.61903,1.10631 -0.90311,1.10631 -0.90311,2.93512 0,1.016 0.24836,1.73849 0.27093,0.72249 0.69991,1.19662 0.45156,0.47413 1.016,0.69991 0.58702,0.22578 1.19662,0.22578 0.83538,0 1.53529,-0.22578 0.69992,-0.24835 1.10632,-0.56444 z m 10.45773,9.88907 h -2.09974 v -11.74045 h 2.09974 z m -1.06116,-13.86277 q -0.56445,0 -0.97085,-0.36124 -0.38382,-0.38383 -0.38382,-1.016 0,-0.63218 0.38382,-0.99343 0.4064,-0.38382 0.97085,-0.38382 0.56444,0 0.94827,0.38382 0.4064,0.36125 0.4064,0.99343 0,0.63217 -0.4064,1.016 -0.38383,0.36124 -0.94827,0.36124 z m 9.28371,2.12232 h 4.44782 v 1.76106 h -4.44782 v 5.41868 q 0,0.88053 0.13546,1.46755 0.13547,0.56445 0.4064,0.90312 0.27094,0.31608 0.67734,0.45155 0.4064,0.13547 0.94827,0.13547 0.94826,0 1.51271,-0.2032 0.58702,-0.22578 0.8128,-0.31609 l 0.4064,1.73849 q -0.31609,0.15804 -1.10631,0.38382 -0.79023,0.24836 -1.80623,0.24836 -1.19662,0 -1.98684,-0.29351 -0.76765,-0.31609 -1.24178,-0.92569 -0.47414,-0.6096 -0.67734,-1.49014 -0.18062,-0.90311 -0.18062,-2.07716 v -10.4761 l 2.09974,-0.36124 z m 13.73154,10.22774 q 0.74506,0 1.30951,-0.0226 0.58702,-0.0452 0.97084,-0.13547 v -3.49955 q -0.22577,-0.11289 -0.74506,-0.18063 -0.49672,-0.0903 -1.21921,-0.0903 -0.47413,0 -1.016,0.0677 -0.51929,0.0677 -0.97084,0.29351 -0.42898,0.2032 -0.72249,0.58702 -0.29351,0.36124 -0.29351,0.97084 0,1.12889 0.72249,1.58045 0.72249,0.42898 1.96427,0.42898 z m -0.18063,-10.52126 q 1.26436,0 2.12232,0.33867 0.88053,0.31609 1.39982,0.92569 0.54187,0.58702 0.76765,1.4224 0.22577,0.8128 0.22577,1.80623 v 7.33778 q -0.27093,0.0452 -0.76764,0.13547 -0.47414,0.0677 -1.08374,0.13547 -0.6096,0.0677 -1.33209,0.11288 -0.69991,0.0677 -1.39982,0.0677 -0.99342,0 -1.8288,-0.2032 -0.83538,-0.2032 -1.44498,-0.63218 -0.6096,-0.45156 -0.94827,-1.17405 -0.33867,-0.72249 -0.33867,-1.73849 0,-0.97084 0.38383,-1.67075 0.4064,-0.69992 1.08373,-1.12889 0.67734,-0.42898 1.58045,-0.63218 0.90311,-0.2032 1.89653,-0.2032 0.31609,0 0.65476,0.0452 0.33867,0.0226 0.63218,0.0903 0.31609,0.0452 0.54186,0.0903 0.22578,0.0452 0.31609,0.0677 v -0.58702 q 0,-0.51929 -0.11289,-1.01601 -0.11288,-0.51929 -0.4064,-0.90311 -0.29351,-0.4064 -0.8128,-0.63218 -0.49671,-0.24835 -1.30951,-0.24835 -1.03858,0 -1.8288,0.15804 -0.76765,0.13547 -1.15147,0.29351 l -0.24835,-1.73849 q 0.4064,-0.18062 1.35466,-0.33866 0.94827,-0.18063 2.05458,-0.18063 z m 14.1605,12.25975 q -1.94169,-0.0452 -2.7545,-0.83538 -0.8128,-0.79022 -0.8128,-2.46098 v -14.08855 l 2.09974,-0.36124 v 14.11112 q 0,0.51929 0.0903,0.85796 0.0903,0.33867 0.29351,0.54187 0.2032,0.2032 0.54187,0.31609 0.33867,0.0903 0.83538,0.15804 z"
       id="text4"
       aria-label="digital" />
  </g>
</svg>
